<svg fill="none" height="22" viewBox="0 0 129 22" width="129" xmlns="http://www.w3.org/2000/svg"><path clip-rule="evenodd" d="m32.5381 6.20684c.7587-1.78579 3.8303-6.21166252 9.8421-6.20683606 6.0186.00482647 10.9136 4.77916606 10.9146 10.92519606.0019 6.0196-4.896 11.0207-10.9146 11.0227-6.0118.0029-8.9762-4.3796-9.8305-6.1306-.0048 2.781-2.6691 6.0254-6.4125 6.0254l-9.2861-.002v-21.483538h9.9599c3.0919.003862 5.7339 3.168088 5.7271 5.849678zm-10.1327 10.63076h2.9538c.8591 0 1.5358-.8485 1.5358-1.8147 0-.9673-.6767-1.8158-1.5358-1.8158h-2.9538zm.0106-8.06598h2.9538c.8591 0 1.5358-.84946 1.5358-1.81668 0-.96626-.6767-1.81475-1.5358-1.81475h-2.9538zm9.0873.80506c-.3977.49422-1.5252 1.26742-2.2018 1.35332.6873.0859 1.7607.945 2.2144 1.6439-.1632-.6129-.1526-2.3852-.0126-2.99722zm5.4124 1.35332c0 3.0204 2.448 5.4684 5.4684 5.4684 3.0194 0 5.4684-2.448 5.4684-5.4684 0-3.02038-2.448-5.46837-5.4684-5.46837s-5.4684 2.44895-5.4684 5.46837zm46.7086-2.9866c.0019.01448 0 13.5315 0 13.5315 0 .1815-.1226.3658-.3012.3658h-1.8369c-1.0744.002-1.9663-.9141-1.9682-2.003v-11.84603c-.0821-2.56286-1.8814-3.91716-4.089-3.9133-2.2067.00289-4.0031 1.41608-4.0774 3.97894v13.43399c0 .1815-.1274.3485-.306.3485h-1.837c-1.0744.0019-1.9663-.9576-1.9682-2.0455v-11.78526c-.0821-2.56285-1.8814-3.91716-4.089-3.9133-2.2067.0029-4.0031 1.36203-4.0774 3.92488v13.48808c0 .1814-.1274.3311-.306.3311h-1.8369c-1.0744.0019-1.9615-.8794-1.9634-1.9683 0 0-.001-11.86825 0-11.87983.1061-5.20197 3.725-7.9627073 8.1789-7.968499 2.4441-.0038612 4.6392.823395 6.1421 2.429639 1.4991-1.611071 3.6913-2.44315313 6.1354-2.4470143 4.4491-.00482646 8.0747 2.7423943 8.2002 7.9376043zm42.3207 13.6377c.073.1081-.007.2519-.14.2519l-3.281.0087c-.77.0019-1.52-.0917-2.185-1.0251l-3.357-4.9539c-.263-.3881-.644-.8476-1.185-.8476-.542 0-.923.4595-1.186.8476l-3.357 4.9539c-.665.9334-1.415 1.027-2.185 1.0251h-3.281c-.133 0-.213-.1525-.14-.2606l6.475-9.5574c.188-.279.28-.6023.276-.9257.004-.3234-.088-.6468-.276-.9257l-6.475-9.557404c-.073-.108113.007-.254838.14-.254838h3.281c.77-.00193 1.52.085911 2.185 1.019352l3.357 4.95388c.263.38805.645.84753 1.186.84753.54 0 .922-.45948 1.185-.84753l3.357-4.95388c.665-.933441 1.415-1.021282 2.185-1.019352h3.281c.133 0 .213.146725.14.254838l-6.475 9.557404c-.188.2789-.279.6023-.276.9257-.003.3234.088.6467.276.9257zm-22.879-21.221042h1.293c.183 0 .331.146725.331.331096l-.008 20.890846c0 .1815-.148.2607-.331.2607h-1.875c-1.042 0-1.895-.7327-1.976-1.752-1.4349 1.1612-3.6772 1.9093-5.9389 1.9093-5.9076 0-9.984-4.2019-9.984-10.9957 0-6.73963 4.0088-10.99560842 10.0322-10.99560842 1.9914 0 4.4018.60910042 6.2607 2.17480842l.478-.83402c.354-.611992 1.01-.988456 1.718-.989422zm-14.4791 10.643342c0 4.3535 2.5097 6.9028 5.9346 6.9028s5.9345-2.5493 5.9345-6.9028c0-4.35349-2.5096-6.90283-5.9345-6.90283s-5.9346 2.54934-5.9346 6.90283zm-78.78435-2.65265h-3.78781v-7.991657h-6.01474v21.482607h6.01474v-8.3353h3.78781v8.3353h5.83515v-21.482607h-5.83515zm32.58155-1.71918c-2.3746 0-4.2985 1.92479-4.2985 4.29843 0 2.3746 1.9248 4.2994 4.2985 4.2994 2.3736 0 4.2984-1.9248 4.2984-4.2994 0-2.37364-1.9248-4.29843-4.2984-4.29843zm84.1109-6.07363h.296v.85332h.241v-.85332h.305v-.198851h-.842zm1.799-.198851-.285.468167-.285-.468167h-.24v1.052171h.24v-.611032l.272.445962h.027l.271-.445962v.611032h.241v-1.052171z" fill="#fff" fill-rule="evenodd"/></svg>